<?xml version="1.0" standalone="no"?>
<!DOCTYPE svg PUBLIC "-//W3C//DTD SVG 20010904//EN"
 "http://www.w3.org/TR/2001/REC-SVG-20010904/DTD/svg10.dtd">
<svg version="1.0" xmlns="http://www.w3.org/2000/svg"
 width="310.000000pt" height="310.000000pt" viewBox="0 0 310.000000 310.000000"
 preserveAspectRatio="xMidYMid meet">
<metadata>
Created by potrace 1.14, written by Peter Selinger 2001-2017
</metadata>
<g transform="translate(0.000000,310.000000) scale(0.100000,-0.100000)"
fill="#000000" stroke="none">
<path d="M2100 2750 l0 -50 -50 0 -50 0 0 -50 0 -50 -50 0 -50 0 0 -50 0 -50
-50 0 -50 0 0 -50 0 -50 -250 0 -250 0 0 -50 0 -50 -50 0 -50 0 0 -50 0 -50
-50 0 -50 0 0 -50 0 -50 -50 0 -50 0 0 -50 0 -50 -50 0 -50 0 0 -50 0 -50 -50
0 -50 0 0 -100 0 -100 -50 0 -50 0 0 -250 0 -250 100 0 100 0 0 -50 0 -50 -50
0 -50 0 0 -50 0 -50 -50 0 -50 0 0 -200 0 -200 -50 0 -50 0 0 -50 0 -50 -50 0
-50 0 0 -100 0 -100 1000 0 1000 0 0 150 0 150 -50 0 -50 0 0 800 0 800 50 0
50 0 0 50 0 50 50 0 50 0 0 50 0 50 -50 0 -50 0 0 50 0 50 -50 0 -50 0 0 50 0
50 -50 0 -50 0 0 50 0 50 -50 0 -50 0 0 50 0 50 -50 0 -50 0 0 -50z m-1000
-1400 l0 -50 -50 0 -50 0 0 -50 0 -50 -50 0 -50 0 0 50 0 50 50 0 50 0 0 50 0
50 50 0 50 0 0 -50z m1100 -150 l0 -100 -50 0 -50 0 0 100 0 100 50 0 50 0 0
-100z m-800 -200 l0 -100 -50 0 -50 0 0 100 0 100 50 0 50 0 0 -100z"/>
</g>
</svg>
